# xmcd CD database file
#
# Track frame offsets:
#	150
#	34694
#	58160
#	72320
#	94506
#	110820
#	133367
#	150464
#	166998
#	189894
#	205952
#	221956
#	244497
#	263957
#	288629
#
# Disc length: 4125 seconds
#
# Revision: 0
# Processed by: cddbd v1.5PL3 Copyright (c) Steve Scherf et al.
# Submitted via: CDex 1.51
#
DISCID=ee101b0f
DTITLE=S.E.N.S. - Statement
DYEAR=1994
DGENRE=New Age
TTITLE0=A City Of Sadness
TTITLE1=Winds A Time
TTITLE2=Masala Tea Waltz
TTITLE3=Against The Wind
TTITLE4=Stone Of The Moon And Water Of The Earth
TTITLE5=Birth
TTITLE6=Remembering Me
TTITLE7=Peace
TTITLE8=Like The wind
TTITLE9=Love In Song
TTITLE10=Jambia Dance
TTITLE11=Choice of Gentleness
TTITLE12=Adventure for Beagle
TTITLE13=The God of the Sea
TTITLE14=Aphrodite
EXTD=YEAR: 1994
EXTT0=
EXTT1=
EXTT2=
EXTT3=
EXTT4=
EXTT5=
EXTT6=
EXTT7=
EXTT8=
EXTT9=
EXTT10=
EXTT11=
EXTT12=
EXTT13=
EXTT14=
PLAYORDER=
